<svg width="120" height="120" viewBox="0 0 120 120" fill="none" xmlns="http://www.w3.org/2000/svg">
<path d="M42.1667 95.4167C42.1667 95.4167 47.4917 73.2824 59.9167 59.9167" stroke="white" stroke-width="1.5" stroke-linecap="round" stroke-linejoin="round"/>
<path d="M84.6838 31.7593L86.8967 54.7751C88.3344 69.7029 77.1401 82.9976 62.2123 84.4295C47.5686 85.8376 34.2975 75.1344 32.8893 60.4847C32.2118 53.4516 34.3557 46.4375 38.8495 40.985C43.3433 35.5326 49.8188 32.0884 56.8518 31.4102L81.3882 29.0435C81.7835 29.0052 82.1824 29.0453 82.5621 29.1614C82.9418 29.2775 83.2948 29.4675 83.601 29.7203C83.9071 29.9731 84.1604 30.2839 84.3462 30.6348C84.532 30.9857 84.6468 31.364 84.6838 31.7593Z" stroke="white" stroke-width="1.5" stroke-linecap="round" stroke-linejoin="round"/>
<path d="M59.9167 119.083C92.5944 119.083 119.083 92.5944 119.083 59.9167C119.083 27.2389 92.5944 0.75 59.9167 0.75C27.2389 0.75 0.75 27.2389 0.75 59.9167C0.75 92.5944 27.2389 119.083 59.9167 119.083Z" stroke="white" stroke-width="1.5" stroke-linecap="round" stroke-linejoin="round"/>
</svg>
