<svg width="198" height="140" viewBox="0 0 198 140" fill="none" xmlns="http://www.w3.org/2000/svg">
<path d="M98.98 80.0001C115.52 80.0001 130.52 86.7301 141.39 97.5901L127.25 111.73C120.01 104.49 110.01 100 98.98 100C87.95 100 77.95 104.49 70.71 111.73L56.57 97.5901C62.1316 92.0087 68.7415 87.5815 76.0196 84.5628C83.2977 81.5441 91.1007 79.9935 98.98 80.0001ZM28.27 69.2901C47.16 50.4001 72.27 40.0001 98.98 40.0001C125.69 40.0001 150.8 50.4001 169.69 69.2901L155.55 83.4301C140.44 68.3201 120.35 60.0001 98.98 60.0001C77.61 60.0001 57.52 68.3201 42.41 83.4301L28.27 69.2901ZM153.48 11.0101C170.109 18.0468 185.22 28.2339 197.98 41.0101L183.84 55.1501C161.17 32.4901 131.04 20.0001 98.99 20.0001C66.94 20.0001 36.8 32.4801 14.14 55.1501L0 41.0101C12.9872 27.9907 28.4189 17.6655 45.4084 10.6277C62.3979 3.58995 80.6105 -0.0217475 99 9.85143e-05C117.9 9.85143e-05 136.23 3.7001 153.5 11.0101H153.48ZM88.98 130C88.98 127.348 90.0336 124.804 91.9089 122.929C93.7843 121.054 96.3278 120 98.98 120C101.632 120 104.176 121.054 106.051 122.929C107.926 124.804 108.98 127.348 108.98 130C108.98 132.652 107.926 135.196 106.051 137.071C104.176 138.947 101.632 140 98.98 140C96.3278 140 93.7843 138.947 91.9089 137.071C90.0336 135.196 88.98 132.652 88.98 130Z" fill="white"/>
</svg>
