<svg width="140" height="120" viewBox="0 0 140 120" fill="none" xmlns="http://www.w3.org/2000/svg">
<path d="M97.6442 85.6546C103.818 82.2233 103.018 69.0012 95.8631 56.1011C92.7941 50.5466 89.0206 46.0486 85.2472 42.9041C80.7349 46.2525 75.2692 48.0685 69.6503 48.0863C64.0228 48.0738 58.5475 46.2576 54.0283 42.9041C50.2548 46.0486 46.4915 50.5516 43.4123 56.1011C36.2529 68.9962 35.463 82.2233 41.6514 85.6546C44.4085 87.2244 47.3166 86.0471 50.3152 83.1591C49.7536 86.2705 49.4724 89.426 49.475 92.5877C49.475 107.37 55.2106 119.314 62.2695 119.314C66.5259 119.314 68.634 114.962 69.6453 108.305C70.6515 114.916 72.7647 119.314 76.9909 119.314C84.0196 119.314 89.8005 107.364 89.8005 92.5877C89.8005 89.2671 89.4885 86.0974 88.9552 83.1642C91.974 86.0572 94.872 87.2546 97.6392 85.6647L97.6442 85.6546ZM69.6403 43.055C72.4948 43.0977 75.3293 42.5721 77.9789 41.509C80.6284 40.4458 83.0401 38.8663 85.0734 36.8624C87.1068 34.8585 88.7213 32.4701 89.823 29.8364C90.9246 27.2026 91.4914 24.3761 91.4904 21.5212C91.4894 18.6663 90.9206 15.8401 89.8171 13.2071C88.7136 10.5742 87.0975 8.18694 85.0627 6.18444C83.0279 4.18193 80.6152 2.60412 77.9649 1.54284C75.3146 0.481561 72.4797 -0.0420001 69.6252 0.00263117C63.9731 0.0910029 58.5825 2.39883 54.6174 6.42777C50.6524 10.4567 48.431 15.8835 48.433 21.5363C48.435 27.1891 50.6602 32.6143 54.628 36.6404C58.5959 40.6666 63.9881 42.9706 69.6403 43.055ZM112.879 56.7099C117.476 56.5755 121.841 54.6547 125.045 51.3551C128.25 48.0556 130.042 43.6371 130.042 39.0376C130.042 34.4381 128.25 30.0196 125.045 26.72C121.841 23.4205 117.476 21.4997 112.879 21.3653C108.191 21.366 103.694 23.2291 100.38 26.5447C97.0651 29.8603 95.2034 34.3568 95.204 39.0451C95.2047 43.7334 97.0678 48.2295 100.383 51.5441C103.699 54.8588 108.196 56.7206 112.884 56.7199L112.879 56.7099ZM134.413 67.4264C131.887 62.8581 128.798 59.1651 125.698 56.5841C121.991 59.3309 117.503 60.8206 112.889 60.8355C109.085 60.8355 105.543 59.794 102.444 58.0683C104.94 63.5675 106.484 69.1371 106.771 74.118C107.244 81.7454 104.859 87.4005 100.089 90.0419C99.0678 90.6052 97.9562 90.9865 96.804 91.1689C96.5172 93.1412 96.321 95.1939 96.321 97.3573C96.321 109.498 101.025 119.304 106.826 119.304C110.318 119.304 112.059 115.731 112.884 110.268C113.704 115.701 115.44 119.304 118.921 119.304C124.682 119.304 129.437 109.493 129.437 97.3674C129.437 94.6354 129.17 92.0343 128.732 89.6193C131.208 91.9991 133.592 92.9802 135.867 91.672C140.933 88.8545 140.279 77.9971 134.408 67.4214L134.413 67.4264ZM26.4017 56.7099C29.896 56.7079 33.3113 55.6699 36.2157 53.7271C39.1202 51.7843 41.3834 49.024 42.7192 45.7951C44.0551 42.5662 44.4036 39.0137 43.7206 35.5867C43.0377 32.1598 41.354 29.0123 38.8825 26.5422C36.4109 24.072 33.2624 22.3901 29.8351 21.7091C26.4078 21.0282 22.8555 21.3787 19.6274 22.7163C16.3992 24.054 13.6402 26.3188 11.6991 29.2244C9.75792 32.1299 8.72186 35.5458 8.72186 39.0401C8.7232 43.7287 10.5863 48.2248 13.9016 51.5401C17.217 54.8555 21.7131 56.7186 26.4017 56.7199V56.7099ZM39.1559 90.0268C31.1462 85.5741 30.4116 72.2967 36.8616 58.0582C33.6736 59.8686 30.0729 60.8269 26.4067 60.8405C21.5968 60.8405 17.1895 59.2305 13.577 56.5841C10.4828 59.1601 7.39865 62.853 4.8629 67.4164C-1.00857 78.0021 -1.65257 88.8596 3.41893 91.667C5.68299 92.965 8.07283 91.994 10.5331 89.6243C10.0855 92.1794 9.85824 94.7683 9.8539 97.3624C9.8539 109.498 14.5581 119.299 20.3591 119.299C23.8508 119.299 25.5916 115.726 26.4168 110.268C27.2469 115.701 28.9827 119.304 32.4543 119.304C38.2251 119.304 42.9696 109.493 42.9696 97.3674C42.9696 95.1889 42.7683 93.1311 42.4816 91.1588C41.3166 90.9773 40.1926 90.5924 39.1609 90.0218L39.1559 90.0268Z" fill="white"/>
</svg>
